<?xml version="1.0" encoding="utf-8"?>
<!-- Generator: Adobe Illustrator 14.0.0, SVG Export Plug-In . SVG Version: 6.00 Build 43363)  -->
<!DOCTYPE svg PUBLIC "-//W3C//DTD SVG 1.1//EN" "http://www.w3.org/Graphics/SVG/1.1/DTD/svg11.dtd">
<svg version="1.1" id="Layer_1" xmlns="http://www.w3.org/2000/svg" xmlns:xlink="http://www.w3.org/1999/xlink" x="0px" y="0px"
	 width="300px" height="300px" viewBox="0 0 300 300" enable-background="new 0 0 300 300" xml:space="preserve">
<g id="Layer_1_1_">
	<path fill="#F89A1F" d="M296.059,169.125c0-3.404-2.763-6.167-6.168-6.167h-16.434c-3.406,0-6.167,2.763-6.167,6.167v92.708
		c0,3.406,2.761,6.167,6.167,6.167h16.434c3.405,0,6.168-2.761,6.168-6.167V169.125z"/>
	<rect x="45.883" y="198.041" fill="#F89A1F" width="209.646" height="35.305"/>
	<circle fill="#F89A1F" cx="72.642" cy="161.126" r="20.508"/>
	<path fill="#F89A1F" d="M100.513,181.635h146.449c0,0-78.019-41.407-107.657-41.407S100.513,181.635,100.513,181.635z"/>
	<path fill="#F89A1F" d="M32.709,133.564c0-3.406-2.761-6.167-6.167-6.167H10.11c-3.406,0-6.167,2.762-6.167,6.167v128.269
		c0,3.406,2.761,6.167,6.167,6.167h16.432c3.406,0,6.167-2.761,6.167-6.167V133.564z"/>
</g>
<g id="Layer_2" display="none">
	<path display="inline" d="M287.932,160.335c0,3.081-2.496,5.578-5.578,5.578h-270c-3.081,0-5.579-2.497-5.579-5.578v-3.905
		c0-3.08,2.498-5.578,5.579-5.578h270c3.082,0,5.578,2.498,5.578,5.578V160.335z"/>
	<path display="inline" d="M6.775,175.955h281.157c0,0-21.197,70.847-60.806,70.847s-127.748,0-160.103,0
		C27.416,246.802,6.775,175.955,6.775,175.955z"/>
	<circle display="inline" cx="55.029" cy="254.891" r="13.11"/>
	<circle display="inline" cx="241.273" cy="254.891" r="13.11"/>
	<path display="inline" fill="none" stroke="#000000" stroke-width="10" stroke-linecap="round" stroke-linejoin="bevel" d="
		M256.691,153.641c0,0,8.927-112.127-44.069-99.297"/>
	<path display="inline" d="M174.016,52.912l51.916,33.751c0,0,3.58-24.952-13.49-36.051
		C195.37,39.514,174.016,52.912,174.016,52.912z"/>
</g>
</svg>
